<?xml version="1.0" encoding="UTF-8"?>
<svg width="26px" height="26px" viewBox="0 0 26 26" version="1.1" xmlns="http://www.w3.org/2000/svg" xmlns:xlink="http://www.w3.org/1999/xlink">
    <title>Activity</title>
    <defs>
        <linearGradient x1="50%" y1="0%" x2="50%" y2="100%" id="linearGradient-1">
            <stop stop-color="#38DF50" offset="0%"></stop>
            <stop stop-color="#78ED89" offset="100%"></stop>
        </linearGradient>
        <linearGradient x1="50%" y1="0%" x2="50%" y2="100%" id="linearGradient-2">
            <stop stop-color="#38DF50" offset="0%"></stop>
            <stop stop-color="#78ED89" offset="100%"></stop>
        </linearGradient>
    </defs>
    <g id="PC-商城布局" stroke="none" stroke-width="1" fill="none" fill-rule="evenodd">
        <g id="桌面端-HD" transform="translate(-376.000000, -190.000000)" fill-rule="nonzero">
            <g id="编组-2" transform="translate(100.000000, 80.000000)">
                <g id="编组-8" transform="translate(31.000000, 110.000000)">
                    <g id="编组-3备份-3" transform="translate(234.000000, 0.000000)">
                        <g id="Activity" transform="translate(11.000000, 0.000000)">
                            <rect id="矩形" fill="url(#linearGradient-1)" opacity="0" x="0" y="0" width="26" height="26"></rect>
                            <path d="M16.5890833,4.33333334 C16.3524188,5.60723401 16.6946965,6.92039551 17.5230902,7.91668706 C18.3514839,8.91297861 19.5801355,9.48914037 20.8758333,9.48891666 C21.14125,9.48783332 21.4066667,9.46183332 21.6666667,9.41308334 L21.6666667,18.0494167 C21.6666667,21.684 19.52275,23.8333333 15.8838333,23.8333333 L7.95816666,23.8333333 C4.31166666,23.8333333 2.16666666,21.684 2.16666666,18.0494167 L2.16666666,10.1356667 C2.16666666,6.50216666 4.31058334,4.33333334 7.95816666,4.33333334 L16.5890833,4.33333334 Z M16.7201667,10.8268333 L16.5934167,10.8355 C16.3817228,10.8659588 16.1913917,10.980861 16.0658333,11.154 L13.455,14.5123333 L10.4834167,12.1723333 C10.3136349,12.0400525 10.0977933,11.981598 9.88446166,12.0101238 C9.67113006,12.0386495 9.47822922,12.151759 9.34916666,12.324 L6.149,16.4515 C6.03618939,16.5917154 5.97533424,16.7666261 5.97672584,16.9465833 L5.98,17.06575 C6.01323237,17.4063169 6.25951543,17.6879773 6.5926037,17.766351 C6.92569197,17.8447247 7.2717283,17.7024336 7.45333334,17.4124167 L10.13025,13.9500833 L13.1029167,16.2803333 C13.271989,16.4164513 13.4890308,16.478193 13.7044332,16.4514464 C13.9198355,16.4246997 14.1151859,16.311751 14.2458333,16.1384167 L17.342,12.1430833 L17.342,12.1225 C17.6075348,11.7666371 17.540174,11.2638369 17.1903333,10.9904167 C17.0206873,10.8597467 16.8053033,10.8034576 16.5934167,10.8344167 L16.7201667,10.8268333 Z" id="形状" fill="url(#linearGradient-1)"></path>
                            <path d="M18.4166667,4.875 C18.4166667,5.84259433 18.932872,6.73668837 19.7708333,7.22048554 C20.6087946,7.70428272 21.6412054,7.70428272 22.4791667,7.22048554 C23.317128,6.73668837 23.8333333,5.84259433 23.8333333,4.875 C23.8333333,3.3792288 22.6207712,2.16666666 21.125,2.16666666 C19.6292288,2.16666666 18.4166667,3.3792288 18.4166667,4.875 L18.4166667,4.875 Z" id="路径" fill="url(#linearGradient-2)" opacity="0.4"></path>
                        </g>
                    </g>
                </g>
            </g>
        </g>
    </g>
</svg>