<?xml version="1.0" encoding="UTF-8"?>
<svg width="26px" height="26px" viewBox="0 0 26 26" version="1.1" xmlns="http://www.w3.org/2000/svg" xmlns:xlink="http://www.w3.org/1999/xlink">
    <title>Chart</title>
    <defs>
        <linearGradient x1="50%" y1="0%" x2="50%" y2="100%" id="linearGradient-1">
            <stop stop-color="#FFA347" offset="0%"></stop>
            <stop stop-color="#FFC78E" offset="100%"></stop>
        </linearGradient>
        <linearGradient x1="50%" y1="0%" x2="50%" y2="100%" id="linearGradient-2">
            <stop stop-color="#FFA347" offset="0%"></stop>
            <stop stop-color="#FFC78E" offset="100%"></stop>
        </linearGradient>
    </defs>
    <g id="PC-商城布局" stroke="none" stroke-width="1" fill="none" fill-rule="evenodd">
        <g id="桌面端-HD" transform="translate(-142.000000, -254.000000)" fill-rule="nonzero">
            <g id="编组-2" transform="translate(100.000000, 80.000000)">
                <g id="编组-8" transform="translate(31.000000, 110.000000)">
                    <g id="编组-3备份-4" transform="translate(0.000000, 64.000000)">
                        <g id="Chart" transform="translate(11.000000, 0.000000)">
                            <rect id="矩形" fill="url(#linearGradient-1)" opacity="0" x="0" y="0" width="26" height="26"></rect>
                            <path d="M18.0656667,2.16666666 L7.94408334,2.16666666 C4.2575,2.16666666 2.16666666,4.25641666 2.16666666,7.94408334 L2.16666666,18.0559167 C2.16666666,21.7425 4.25641666,23.8333333 7.94408334,23.8333333 L18.0656667,23.8333333 C21.7533333,23.8333333 23.8333333,21.7435833 23.8333333,18.0559167 L23.8333333,7.94408334 C23.8333333,4.2575 21.7533333,2.16666666 18.0656667,2.16666666" id="路径" fill="url(#linearGradient-1)" opacity="0.4"></path>
                            <path d="M7.98308334,10.14975 C7.48596256,10.1533275 7.08536339,10.5582863 7.08716059,11.0554167 L7.08716059,18.4979167 C7.08716059,18.995111 7.49022231,19.3981667 7.98741666,19.3981667 C8.484611,19.3981667 8.88766731,18.995111 8.88766731,18.4979167 L8.88766731,11.0554167 C8.8879542,10.8153186 8.79277711,10.5849559 8.62310366,10.4150792 C8.4534302,10.2452026 8.22318157,10.14975 7.98308334,10.14975 M13.0379167,6.59641666 C12.5412199,6.60058745 12.1412769,7.00537239 12.1430772,7.50208334 L12.1430772,18.4979167 C12.1430772,18.995111 12.546139,19.3981667 13.0433333,19.3981667 C13.5405277,19.3981667 13.943584,18.995111 13.943584,18.4979167 L13.943584,7.50316666 C13.9438713,7.26288077 13.8485456,7.03235357 13.6786377,6.86244567 C13.5087297,6.69253777 13.2782025,6.59721206 13.0379167,6.5975 M18.0266667,14.079 C17.7865686,14.0787125 17.5562059,14.1738896 17.3863292,14.343563 C17.2164526,14.5132365 17.121,14.7434851 17.121,14.9835833 L17.121,18.499 C17.121,18.9964935 17.5242982,19.3997917 18.0217917,19.3997917 C18.5192852,19.3997917 18.9225861,18.9964935 18.9225861,18.499 L18.9225861,14.9825 C18.9237888,14.4857918 18.5233635,14.0814929 18.0266667,14.0779167" id="形状" fill="url(#linearGradient-2)"></path>
                        </g>
                    </g>
                </g>
            </g>
        </g>
    </g>
</svg>