<?xml version="1.0" encoding="UTF-8"?>
<svg width="26px" height="26px" viewBox="0 0 26 26" version="1.1" xmlns="http://www.w3.org/2000/svg" xmlns:xlink="http://www.w3.org/1999/xlink">
    <title>Chat</title>
    <defs>
        <linearGradient x1="50%" y1="0%" x2="50%" y2="100%" id="linearGradient-1">
            <stop stop-color="#FF614A" offset="0%"></stop>
            <stop stop-color="#FFA497" offset="100%"></stop>
        </linearGradient>
        <linearGradient x1="50%" y1="0%" x2="50%" y2="100%" id="linearGradient-2">
            <stop stop-color="#FF614A" offset="0%"></stop>
            <stop stop-color="#FFA497" offset="100%"></stop>
        </linearGradient>
        <linearGradient x1="50%" y1="0%" x2="50%" y2="100%" id="linearGradient-3">
            <stop stop-color="#FF614A" offset="0%"></stop>
            <stop stop-color="#FFA497" offset="100%"></stop>
        </linearGradient>
    </defs>
    <g id="PC-商城布局" stroke="none" stroke-width="1" fill="none" fill-rule="evenodd">
        <g id="桌面端-HD" transform="translate(-220.000000, -254.000000)" fill-rule="nonzero">
            <g id="编组-2" transform="translate(100.000000, 80.000000)">
                <g id="编组-8" transform="translate(31.000000, 110.000000)">
                    <g id="编组-3备份-8" transform="translate(78.000000, 64.000000)">
                        <g id="Chat" transform="translate(11.000000, 0.000000)">
                            <rect id="矩形" fill="url(#linearGradient-1)" opacity="0" x="0" y="0" width="26" height="26"></rect>
                            <path d="M13.0043333,2.16666666 C7.02325,2.16666666 2.171,7.01458334 2.16664844,12.9978333 C2.16345989,14.7424025 2.58352822,16.4617086 3.39083334,18.00825 C3.46666668,18.1534167 3.53491668,18.2975 3.61183334,18.4329167 C3.78516668,18.7655 3.81875,19.1533333 3.70825,19.5119167 C3.3995,20.3363333 3.14166666,21.18025 2.93691666,22.0360833 C2.93691666,22.46075 3.06258332,22.711 3.51541666,22.711 C4.33875,22.5268333 5.14908332,22.29175 5.94316666,22.0068333 C6.2881537,21.917164 6.65285697,21.9410977 6.98316666,22.0750833 C7.28216666,22.2289167 7.55191666,22.451 7.84983334,22.5853333 L7.94733334,22.5853333 C11.3062025,24.3549065 15.3462237,24.2374751 18.5966364,22.2757899 C21.847049,20.3141047 23.8336924,16.7943306 23.8333333,12.9978333 C23.8279167,7.01783334 18.98325,2.17208334 13.0043333,2.16666666 Z" id="路径" fill="url(#linearGradient-2)" opacity="0.4"></path>
                            <path d="M7.865,14.6629167 C7.38038457,14.662983 6.93255308,14.4044818 6.69022623,13.9848036 C6.44789937,13.5651253 6.44789937,13.0480413 6.69022623,12.6283631 C6.93255308,12.2086849 7.38038457,11.9501837 7.865,11.95025 C8.61400974,11.9503525 9.22114777,12.5575736 9.22114777,13.3065833 C9.22114777,14.0555931 8.61400974,14.6628142 7.865,14.6629167 Z M12.7649167,14.6629167 C12.4042108,14.6658282 12.0574173,14.5238994 11.8022497,14.2689354 C11.5470821,14.0139714 11.4048765,13.6672914 11.4075,13.3065833 C11.4075002,12.5576422 12.0145314,11.9504497 12.7634725,11.9502504 C13.5124136,11.9500512 14.1197678,12.5569206 14.1201667,13.3058617 C14.1205652,14.0548027 13.5138576,14.6623185 12.7649167,14.6629167 L12.7649167,14.6629167 Z M17.654,14.6629167 C17.1693846,14.662983 16.7215531,14.4044818 16.4792262,13.9848036 C16.2368994,13.5651253 16.2368994,13.0480413 16.4792262,12.6283631 C16.7215531,12.2086849 17.1693846,11.9501837 17.654,11.95025 C18.4030097,11.9503525 19.0101478,12.5575736 19.0101478,13.3065833 C19.0101478,14.0555931 18.4030097,14.6628142 17.654,14.6629167 Z" id="形状" fill="url(#linearGradient-3)"></path>
                        </g>
                    </g>
                </g>
            </g>
        </g>
    </g>
</svg>