<?xml version="1.0" encoding="UTF-8"?>
<svg width="26px" height="26px" viewBox="0 0 26 26" version="1.1" xmlns="http://www.w3.org/2000/svg" xmlns:xlink="http://www.w3.org/1999/xlink">
    <title>Graph</title>
    <defs>
        <linearGradient x1="50%" y1="0%" x2="50%" y2="100%" id="linearGradient-1">
            <stop stop-color="#FF614A" offset="0%"></stop>
            <stop stop-color="#FFA497" offset="100%"></stop>
        </linearGradient>
        <linearGradient x1="50%" y1="0%" x2="50%" y2="100%" id="linearGradient-2">
            <stop stop-color="#FF614A" offset="0%"></stop>
            <stop stop-color="#FFA497" offset="100%"></stop>
        </linearGradient>
        <linearGradient x1="50%" y1="0%" x2="50%" y2="100%" id="linearGradient-3">
            <stop stop-color="#FF614A" offset="0%"></stop>
            <stop stop-color="#FFA497" offset="100%"></stop>
        </linearGradient>
    </defs>
    <g id="PC-商城布局" stroke="none" stroke-width="1" fill="none" fill-rule="evenodd">
        <g id="桌面端-HD" transform="translate(-298.000000, -254.000000)" fill-rule="nonzero">
            <g id="编组-2" transform="translate(100.000000, 80.000000)">
                <g id="编组-8" transform="translate(31.000000, 110.000000)">
                    <g id="编组-3备份-5" transform="translate(156.000000, 64.000000)">
                        <g id="Graph" transform="translate(11.000000, 0.000000)">
                            <rect id="矩形" fill="url(#linearGradient-1)" opacity="0" x="0" y="0" width="26" height="26"></rect>
                            <path d="M10.9990833,6.019 C11.05325,6.13058334 11.0900833,6.25083334 11.1074167,6.37433334 L11.4085833,10.8593333 L11.5580833,13.11375 C11.5591667,13.3455833 11.596,13.5763333 11.6664167,13.7973333 C11.8473333,14.2274167 12.28175,14.5004167 12.7551667,14.4809167 L19.9669167,14.0096667 C20.28,14.00425 20.5811667,14.12125 20.8054167,14.3346667 C20.9928333,14.51125 21.1130833,14.7441667 21.1520833,14.9933333 L21.164,15.145 C20.8660833,19.2779167 17.8305833,22.7250833 13.7063333,23.6145 C9.58316668,24.5039167 5.35383334,22.6243333 3.31608334,18.99625 C2.7291921,17.9449638 2.36174923,16.7855102 2.236,15.5880833 C2.18401118,15.2345003 2.16118427,14.877241 2.16775,14.5199167 C2.16125,10.0890833 5.31591666,6.25841666 9.73266666,5.33541666 C10.2645833,5.252 10.7856667,5.53366666 10.9990833,6.01791666 L10.9990833,6.019 Z" id="路径" fill="url(#linearGradient-2)"></path>
                            <path d="M13.9425,2.16666666 C18.8825,2.29341666 23.0338333,5.84566666 23.8333333,10.6296667 L23.82575,10.6654167 L23.8040833,10.7163333 L23.8073333,10.8571667 C23.7955862,11.0457261 23.7225463,11.2252825 23.5993333,11.3685 C23.4698494,11.5195744 23.2937588,11.6232467 23.0988333,11.6631667 L22.9796667,11.6794167 L14.6596667,12.2189167 C14.3836415,12.2464141 14.1086913,12.1572517 13.9013333,11.973 C13.7312718,11.8223583 13.6203033,11.6161643 13.58825,11.39125 L13.0303333,3.08208334 C13.0205923,3.05401558 13.0205923,3.02348442 13.0303333,2.99541666 C13.0383161,2.76543917 13.1391571,2.54851367 13.3098333,2.39416666 C13.4824667,2.23786451 13.709861,2.156096 13.9425,2.16666666 Z" id="路径" fill="url(#linearGradient-3)" opacity="0.4"></path>
                        </g>
                    </g>
                </g>
            </g>
        </g>
    </g>
</svg>