<?xml version="1.0" encoding="UTF-8"?>
<svg width="26px" height="26px" viewBox="0 0 26 26" version="1.1" xmlns="http://www.w3.org/2000/svg" xmlns:xlink="http://www.w3.org/1999/xlink">
    <title>Profile</title>
    <defs>
        <linearGradient x1="50%" y1="0%" x2="50%" y2="100%" id="linearGradient-1">
            <stop stop-color="#3F82FF" offset="0%"></stop>
            <stop stop-color="#87B1FF" offset="100%"></stop>
        </linearGradient>
        <linearGradient x1="50%" y1="0%" x2="50%" y2="100%" id="linearGradient-2">
            <stop stop-color="#3F82FF" offset="0%"></stop>
            <stop stop-color="#87B1FF" offset="100%"></stop>
        </linearGradient>
        <linearGradient x1="50%" y1="0%" x2="50%" y2="100%" id="linearGradient-3">
            <stop stop-color="#3F82FF" offset="0%"></stop>
            <stop stop-color="#87B1FF" offset="100%"></stop>
        </linearGradient>
    </defs>
    <g id="PC-商城布局" stroke="none" stroke-width="1" fill="none" fill-rule="evenodd">
        <g id="桌面端-HD" transform="translate(-376.000000, -254.000000)" fill-rule="nonzero">
            <g id="编组-2" transform="translate(100.000000, 80.000000)">
                <g id="编组-8" transform="translate(31.000000, 110.000000)">
                    <g id="编组-3备份-7" transform="translate(234.000000, 64.000000)">
                        <g id="Profile" transform="translate(11.000000, 0.000000)">
                            <rect id="矩形" fill="url(#linearGradient-1)" opacity="0" x="0" y="0" width="26" height="26"></rect>
                            <path d="M6.90625,8.18566666 C6.90625,11.5098686 9.63451481,14.2046667 13,14.2046667 C16.3654852,14.2046667 19.09375,11.5098686 19.09375,8.18566666 C19.09375,4.86146475 16.3654852,2.16666666 13,2.16666666 C9.63451481,2.16666666 6.90625,4.86146475 6.90625,8.18566666 L6.90625,8.18566666 Z" id="路径" fill="url(#linearGradient-2)" opacity="0.4"></path>
                            <path d="M22.7391667,20.2323333 C22.7445833,20.1456667 22.7445833,20.0600833 22.7391667,19.9745 C22.7145577,19.6562191 22.6245724,19.3464335 22.4748333,19.0645 C21.88225,17.9075 20.2215,17.3831667 18.8359167,17.0863333 C17.8468333,16.8805 16.8425833,16.7483333 15.8318333,16.6898333 L14.7734167,16.61075 L11.219,16.61075 L10.1616667,16.6898333 C9.15091666,16.7483333 8.14666666,16.8805 7.15758334,17.0863333 C5.77091668,17.3430833 4.11125,17.8771667 3.51758334,19.0645 C3.36822129,19.346516 3.27860595,19.6562974 3.25433334,19.9745 C3.24891668,20.0611667 3.24891668,20.14675 3.25433334,20.2323333 C3.24891668,20.3179167 3.24891668,20.4035 3.25433334,20.4890833 C3.2825,20.80325 3.37675,21.10875 3.5295,21.3893333 C4.12208334,22.5474167 5.78283334,23.07175 7.16841666,23.3685833 C8.15858332,23.5635833 9.16175,23.6968333 10.1725,23.764 L11.2298333,23.8333333 L14.78425,23.8333333 L15.8426667,23.764 C16.8514869,23.6969106 17.8549304,23.564831 18.84675,23.3685833 C20.2323333,23.101 21.8930833,22.57775 22.4856667,21.3893333 C22.6308333,21.1000833 22.72075,20.7880833 22.75,20.4695833 C22.751295,20.3899917 22.747677,20.310396 22.7391667,20.23125 L22.7391667,20.2323333 Z" id="路径" fill="url(#linearGradient-3)"></path>
                        </g>
                    </g>
                </g>
            </g>
        </g>
    </g>
</svg>