<?xml version="1.0" encoding="UTF-8"?>
<svg width="26px" height="26px" viewBox="0 0 26 26" version="1.1" xmlns="http://www.w3.org/2000/svg" xmlns:xlink="http://www.w3.org/1999/xlink">
    <title>Scan</title>
    <defs>
        <linearGradient x1="50%" y1="0%" x2="50%" y2="100%" id="linearGradient-1">
            <stop stop-color="#FF614A" offset="0%"></stop>
            <stop stop-color="#FFA497" offset="100%"></stop>
        </linearGradient>
        <linearGradient x1="50%" y1="0%" x2="50%" y2="100%" id="linearGradient-2">
            <stop stop-color="#FF614A" offset="0%"></stop>
            <stop stop-color="#FFA497" offset="100%"></stop>
        </linearGradient>
        <linearGradient x1="50%" y1="0%" x2="50%" y2="100%" id="linearGradient-3">
            <stop stop-color="#FF614A" offset="0%"></stop>
            <stop stop-color="#FFA497" offset="100%"></stop>
        </linearGradient>
        <linearGradient x1="50%" y1="0%" x2="50%" y2="100%" id="linearGradient-4">
            <stop stop-color="#FF614A" offset="0%"></stop>
            <stop stop-color="#FFA497" offset="100%"></stop>
        </linearGradient>
        <linearGradient x1="50%" y1="0%" x2="50%" y2="100%" id="linearGradient-5">
            <stop stop-color="#FF614A" offset="0%"></stop>
            <stop stop-color="#FFA497" offset="100%"></stop>
        </linearGradient>
    </defs>
    <g id="PC-商城布局" stroke="none" stroke-width="1" fill="none" fill-rule="evenodd">
        <g id="桌面端-HD" transform="translate(-298.000000, -190.000000)" fill-rule="nonzero">
            <g id="编组-2" transform="translate(100.000000, 80.000000)">
                <g id="编组-8" transform="translate(31.000000, 110.000000)">
                    <g id="编组-3备份-2" transform="translate(156.000000, 0.000000)">
                        <g id="Scan" transform="translate(11.000000, 0.000000)">
                            <rect id="矩形" fill="url(#linearGradient-1)" opacity="0" x="0" y="0" width="26" height="26"></rect>
                            <path d="M21.3416667,10.9405833 C20.9473501,10.9376158 20.6289266,10.6177426 20.62775,10.2234167 L20.62775,9.17691666 C20.6417377,8.29188636 20.3075498,7.43677003 19.6971667,6.79575 C19.0934608,6.1616842 18.2596728,5.79770743 17.38425,5.78608334 L16.62375,5.78608334 C16.2267191,5.78191524 15.9079094,5.45729141 15.9108956,5.06025 C15.9108956,4.65941666 16.2294167,4.33333334 16.62375,4.33333334 L17.38425,4.33333334 C19.9885833,4.36583334 22.08375,6.52491668 22.08375,9.17691666 L22.08375,10.2136667 C22.0888399,10.403905 22.0178797,10.5883234 21.8865833,10.7260833 C21.7568721,10.8628333 21.5767321,10.9403717 21.38825,10.9405833 L21.3416667,10.9405833 Z M4.69625,10.94064 C4.50739423,10.9429879 4.32563293,10.8687198 4.1925,10.73475 C4.05793153,10.5986595 3.98275303,10.4148033 3.98341666,10.2234167 L3.98341666,9.17691666 C3.96633741,7.90242992 4.45343914,6.67279982 5.33866666,5.75575 C6.21446097,4.84845896 7.42080628,4.33519539 8.68183334,4.33333334 L9.46183334,4.33333334 C9.85616668,4.33333334 10.1746667,4.65833334 10.1746667,5.05916666 C10.1746667,5.46108332 9.85616666,5.78608332 9.46183334,5.78608334 L8.69158334,5.78608334 C7.808878,5.7849001 6.96384381,6.14364841 6.35158334,6.7795 C5.73194638,7.42204742 5.39292181,8.28441682 5.40908334,9.17691666 L5.40908334,10.2234167 C5.40732917,10.617082 5.08989749,10.9364434 4.69625,10.94064 L4.69625,10.94064 Z" id="形状" fill="url(#linearGradient-2)" opacity="0.4"></path>
                            <path d="M22.0545,15.2316667 L22.0545,17.9540833 C22.0241667,20.5735833 19.9560833,22.6936667 17.3853333,22.74025 L16.614,22.74025 C16.3397183,22.771811 16.0720848,22.6411652 15.92825,22.4055 C15.7818065,22.1680706 15.7818065,21.868346 15.92825,21.6309167 C16.0723726,21.3956663 16.3399486,21.2654714 16.614,21.29725 L17.38425,21.29725 C19.1988333,21.2918333 20.66675,19.7914167 20.66675,17.9443333 L20.66675,15.2316667 L22.0545,15.2316667 L22.0545,15.2316667 Z M10.1746681,22.0241667 C10.1724341,22.4190683 9.85663018,22.7406316 9.46183334,22.75 L8.68183334,22.75 C6.0775,22.7175 3.98341666,20.5584167 3.98341666,17.9064167 L3.98341666,15.2316667 L5.41016666,15.2316667 L5.41016666,17.9540833 C5.41016666,19.7979167 6.87266666,21.2961667 8.68183334,21.307 L9.46183334,21.307 C9.65068911,21.3045955 9.83245041,21.3788635 9.96558334,21.5128333 C10.0998868,21.6486574 10.1750438,21.8320716 10.1746681,22.0230833 L10.1746681,22.0241667 Z M23.8333333,14.5058333 C23.8333333,14.9066667 23.51375,15.2316667 23.1205,15.2316667 L2.8795,15.2316667 C2.48246909,15.2274986 2.16365943,14.9028747 2.16664556,14.5058333 C2.16664556,14.105 2.48625,13.78 2.8795,13.78 L23.09125,13.78 C23.28625,13.7713333 23.47475,13.845 23.6145,13.9815 C23.7553333,14.118 23.8333333,14.3075833 23.8333333,14.5058333 Z" id="形状" fill="url(#linearGradient-3)"></path>
                            <path d="M17.9551667,12.025 L17.9551667,10.7759167 C17.9551667,10.1725 17.7200833,9.59291666 17.3008333,9.16608334 C16.8850569,8.74027551 16.3153814,8.49975454 15.72025,8.49875 L10.27975,8.49875 C9.04475,8.49875 8.04483334,9.51816666 8.04483334,10.7759167 L8.04483334,12.025 C8.04868721,12.1712855 8.165129,12.2896207 8.31133334,12.2958333 L17.6886667,12.2958333 C17.834871,12.2896207 17.9513128,12.1712855 17.9551667,12.025 Z" id="路径" fill="url(#linearGradient-4)" opacity="0.4"></path>
                            <path d="M17.9551667,15.2316667 L17.9551667,16.3171667 C17.9551667,17.5738333 16.9541667,18.5943333 15.72025,18.5943333 L10.27975,18.5943333 C9.04475,18.5943333 8.04483334,17.5749167 8.04483334,16.3171667 L8.04483334,15.2316667 L17.9551667,15.2316667 Z" id="路径" fill="url(#linearGradient-5)"></path>
                        </g>
                    </g>
                </g>
            </g>
        </g>
    </g>
</svg>