<?xml version="1.0" encoding="UTF-8"?>
<svg width="26px" height="26px" viewBox="0 0 26 26" version="1.1" xmlns="http://www.w3.org/2000/svg" xmlns:xlink="http://www.w3.org/1999/xlink">
    <title>Wallet</title>
    <defs>
        <linearGradient x1="50%" y1="0%" x2="50%" y2="100%" id="linearGradient-1">
            <stop stop-color="#B45FFF" offset="0%"></stop>
            <stop stop-color="#CC93FF" offset="100%"></stop>
        </linearGradient>
        <linearGradient x1="50%" y1="0%" x2="50%" y2="100%" id="linearGradient-2">
            <stop stop-color="#B45FFF" offset="0%"></stop>
            <stop stop-color="#CC93FF" offset="100%"></stop>
        </linearGradient>
        <linearGradient x1="50%" y1="0%" x2="50%" y2="100%" id="linearGradient-3">
            <stop stop-color="#B45FFF" offset="0%"></stop>
            <stop stop-color="#CC93FF" offset="100%"></stop>
        </linearGradient>
    </defs>
    <g id="PC-商城布局" stroke="none" stroke-width="1" fill="none" fill-rule="evenodd">
        <g id="桌面端-HD" transform="translate(-220.000000, -190.000000)" fill-rule="nonzero">
            <g id="编组-2" transform="translate(100.000000, 80.000000)">
                <g id="编组-8" transform="translate(31.000000, 110.000000)">
                    <g id="编组-3备份" transform="translate(78.000000, 0.000000)">
                        <g id="Wallet" transform="translate(11.000000, 0.000000)">
                            <rect id="矩形" fill="url(#linearGradient-1)" opacity="0" x="0" y="0" width="26" height="26"></rect>
                            <path d="M17.8901667,3.25 C21.6233333,3.25 23.829,5.39391666 23.829,9.03283334 L23.829,9.07291666 L19.2421667,9.07291666 C17.108,9.07725 15.3779167,10.7629167 15.3746667,12.8450833 C15.3703333,14.9305 17.1025833,16.6248333 19.2421667,16.627 L23.8333333,16.627 L23.8333333,16.9585 C23.8333333,20.5985 21.6276667,22.75 17.8934167,22.75 L8.10766666,22.75 C4.37233334,22.75 2.16666666,20.5985 2.16666666,16.9585 L2.16666666,9.03283334 C2.16666666,5.39283334 4.37233334,3.25 8.10766666,3.25 L17.8901667,3.25 Z M13.416,7.44791666 L7.30166666,7.44791666 C6.85184614,7.4442901 6.48329228,7.80413796 6.47616666,8.25391666 C6.48093005,8.7053948 6.8501778,9.06785849 7.30166666,9.06425 L13.4225,9.06425 C13.6397143,9.06598076 13.848719,8.98134904 14.0035318,8.82897426 C14.1583445,8.67659948 14.2462829,8.46896446 14.248,8.25175 C14.2391066,7.80008368 13.8666124,7.44066789 13.4149167,7.44791666 L13.416,7.44791666 Z" id="形状" fill="url(#linearGradient-2)"></path>
                            <path d="M17.3734167,13.32175 C17.6009167,14.3509167 18.5033333,15.07675 19.53575,15.0583333 L23.0565833,15.0583333 C23.4905415,15.05298 23.8381486,14.6971311 23.8333828,14.2631667 L23.8333828,11.5201667 C23.8369554,11.0866815 23.4900344,10.731535 23.0565833,10.725 L19.4523333,10.725 C18.2790833,10.72825 17.3311667,11.7021667 17.3333296,12.9025 C17.3333296,13.0433333 17.3474167,13.1841667 17.3734167,13.32175" id="路径" fill="url(#linearGradient-3)" opacity="0.4"></path>
                            <path d="M18.4166667,12.8916667 C18.4166667,13.4899751 18.9016915,13.975 19.5,13.975 C20.0983085,13.975 20.5833333,13.4899751 20.5833333,12.8916667 C20.5833333,12.2933582 20.0983085,11.8083333 19.5,11.8083333 C18.9016915,11.8083333 18.4166667,12.2933582 18.4166667,12.8916667 L18.4166667,12.8916667 Z" id="路径" fill="url(#linearGradient-1)"></path>
                        </g>
                    </g>
                </g>
            </g>
        </g>
    </g>
</svg>