<?xml version="1.0" encoding="UTF-8"?>
<svg width="375px" height="215px" viewBox="0 0 375 215" version="1.1" xmlns="http://www.w3.org/2000/svg" xmlns:xlink="http://www.w3.org/1999/xlink">
    <title>img-2</title>
    <defs>
        <path d="M41.6702033,10.0742682 C76.2575508,3.35808941 104.582467,1.90851483e-14 126.644951,1.90851483e-14 C148.707436,1.90851483e-14 181.992618,3.35808941 226.500496,10.0742682 L263.895268,48.408137 C266.109221,50.3264519 267.425626,53.013381 267.844483,56.4689248 L0.179750244,56.4689248 C1.37134235,52.2442867 2.78113787,49.5573576 4.4091368,48.408137 C6.03713574,47.2589166 18.4574912,34.4809603 41.6702033,10.0742682 Z" id="path-1"></path>
        <path d="M41.6702033,10.0742682 C76.2575508,3.35808941 104.582467,1.90851483e-14 126.644951,1.90851483e-14 C148.707436,1.90851483e-14 181.992618,3.35808941 226.500496,10.0742682 L263.895268,48.408137 C266.109221,50.3264519 267.425626,53.013381 267.844483,56.4689248 L0.179750244,56.4689248 C1.37134235,52.2442867 2.78113787,49.5573576 4.4091368,48.408137 C6.03713574,47.2589166 18.4574912,34.4809603 41.6702033,10.0742682 Z" id="path-3"></path>
        <path d="M6.06807244,0.121135567 L74.8209978,0.121135567 C75.4674383,0.0960188176 76.084033,0.429411765 76.6707818,1.12131441 C79.5721417,5.90885073 81.7937292,9.65610617 82.0464333,10.2235743 C82.2149026,10.6018864 81.9424546,10.9798231 81.2290902,11.3573845 L0.886639694,11.3573845 L0.131132734,10.128593 C2.73961431,4.59624112 4.18764225,1.54524358 4.47521652,0.975600372 C4.76279082,0.405957169 5.29374278,0.121135567 6.06807244,0.121135567 Z" id="path-5"></path>
        <path d="M0.0100390974,25.8220882 C10.605008,25.8220882 26.6016617,25.8220882 48,25.8220882 C47.3906871,16.3226992 43.1076684,11.5730046 35.1509443,11.5730046 C32.1190898,3.80248082 27.2570225,0.0504176235 20.5647425,0.31681501 C13.8724625,0.583212396 9.50925375,5.53481326 7.47511609,15.1716176 C2.30907834,16.4764804 -0.17928066,20.0266373 0.0100390974,25.8220882 Z" id="path-7"></path>
        <path d="M0,2.96437629 C17.4862616,3.02291925 27.4254533,2.11385069 29.8175751,0.237170597 C33.4678884,20.072011 37.6152459,33.2638028 42.2596474,39.8125455 C37.9585012,41.8408211 32.870605,42.521008 26.9959585,41.8531065 C18.1839887,40.8512541 14.5270615,38.5778439 7.98825868,31.1065125 C3.62905682,26.1256251 0.966303914,16.744913 0,2.96437629 Z" id="path-9"></path>
        <path d="M0,2.96437629 C17.4862616,3.02291925 27.4254533,2.11385069 29.8175751,0.237170597 C33.4678884,20.072011 37.6152459,33.2638028 42.2596474,39.8125455 C37.9585012,41.8408211 32.870605,42.521008 26.9959585,41.8531065 C18.1839887,40.8512541 14.5270615,38.5778439 7.98825868,31.1065125 C3.62905682,26.1256251 0.966303914,16.744913 0,2.96437629 Z" id="path-11"></path>
        <path d="M4.39772309,27.0931232 C19.6750518,12.542184 28.6039842,4.0434511 31.1845204,1.59692434 C35.0553246,-2.0728658 41.1595683,1.02807548 35.9862738,6.37452348 C32.5374109,9.93882217 23.5136564,18.4542235 8.91501019,31.9207276 L0.000376358277,35.9720239 L4.39772309,27.0931232 Z" id="path-13"></path>
        <path d="M4.39772309,27.0931232 C19.6750518,12.542184 28.6039842,4.0434511 31.1845204,1.59692434 C35.0553246,-2.0728658 41.1595683,1.02807548 35.9862738,6.37452348 C32.5374109,9.93882217 23.5136564,18.4542235 8.91501019,31.9207276 L0.000376358277,35.9720239 L4.39772309,27.0931232 Z" id="path-15"></path>
        <path d="M4.39772309,27.0931232 C19.6750518,12.542184 28.6039842,4.0434511 31.1845204,1.59692434 C35.0553246,-2.0728658 41.1595683,1.02807548 35.9862738,6.37452348 C32.5374109,9.93882217 23.5136564,18.4542235 8.91501019,31.9207276 L0.000376358277,35.9720239 L4.39772309,27.0931232 Z" id="path-17"></path>
        <path d="M4.39772309,27.0931232 C19.6750518,12.542184 28.6039842,4.0434511 31.1845204,1.59692434 C35.0553246,-2.0728658 41.1595683,1.02807548 35.9862738,6.37452348 C32.5374109,9.93882217 23.5136564,18.4542235 8.91501019,31.9207276 L0.000376358277,35.9720239 L4.39772309,27.0931232 Z" id="path-19"></path>
        <path d="M10.7449407,1.73931063 L0,22.5544686 C11.2028497,19.3481474 19.6066374,19.3481474 25.2113633,22.5544686 C39.1759315,21.5099106 48.5199797,24.1041642 53.2435078,30.3372295 L66,5.95563805 L48.4021387,0 L10.7449407,1.73931063 Z" id="path-21"></path>
    </defs>
    <g id="缺省" stroke="none" stroke-width="1" fill="none" fill-rule="evenodd">
        <g id="img-2">
            <g id="编组-3" transform="translate(55.000000, 4.000000)" fill-rule="nonzero">
                <g id="矩形">
                    <g id="蒙版" transform="translate(7.758065, 3.864858)" fill="#6871FF">
                        <g id="矩形" transform="translate(0.103886, 0.000000)">
                            <rect x="0" y="0" width="207.507392" height="121.59437"></rect>
                        </g>
                    </g>
                    <rect fill="#B1B5FF" x="0.263440865" y="0.194084295" width="221.559812" height="11.0123203"></rect>
                    <ellipse id="椭圆形" fill="#FF7272" cx="13.3790322" cy="7.99447781" rx="2.34206989" ry="2.29423339"></ellipse>
                    <ellipse id="椭圆形备份-94" fill="#FFDE30" cx="20.8736559" cy="7.99447781" rx="2.34206989" ry="2.29423339"></ellipse>
                    <ellipse id="椭圆形备份-95" fill="#8BDD7A" cx="28.3682796" cy="7.99447781" rx="2.34206989" ry="2.29423339"></ellipse>
                </g>
                <rect id="矩形" fill="#5058D0" x="38.204973" y="37.819512" width="170.971102" height="78.4627821"></rect>
                <rect id="矩形" fill="#6871FF" x="204.491935" y="5.24139775" width="5.62096773" height="4.12962009"></rect>
                <rect id="矩形备份-3" fill="#D4D6FF" x="203.555108" y="6.15909111" width="5.62096773" height="4.12962009"></rect>
            </g>
            <ellipse id="椭圆形-2" fill="#5683FF" fill-rule="nonzero" cx="187.5" cy="181" rx="187.5" ry="34"></ellipse>
            <g id="表格" transform="translate(19.000000, 70.000000)" fill-rule="nonzero">
                <rect id="矩形" fill="#74F5FF" x="0" y="0" width="121" height="72"></rect>
                <path d="M4.54460092,65.8604651 L4.54460092,5.0232558 L91.460094,5.0232558 L91.460094,65.8604651 L4.54460092,65.8604651 Z M23.5750312,61.0139666 L18.3430386,61.0139666 L18.3430386,65.3021319 L23.5750312,65.3021319 L23.5750312,61.0139666 Z M48.5702585,61.0139666 L43.3382659,61.0139666 L43.3382659,65.3021319 L48.5702585,65.3021319 L48.5702585,61.0139666 Z M29.823838,61.0139666 L24.5918454,61.0139666 L24.5918454,65.3021319 L29.823838,65.3021319 L29.823838,61.0139666 Z M54.8190654,61.0139666 L49.5870727,61.0139666 L49.5870727,65.3021319 L54.8190654,65.3021319 L54.8190654,61.0139666 Z M10.8644102,61.0139666 L5.11267604,61.0140844 L5.11267604,65.3023256 L10.8644102,65.3021319 L10.8644102,61.0139666 Z M61.0678722,61.0139666 L55.8358796,61.0139666 L55.8358796,65.3021319 L61.0678722,65.3021319 L61.0678722,61.0139666 Z M36.0726448,61.0139666 L30.8406522,61.0139666 L30.8406522,65.3021319 L36.0726448,65.3021319 L36.0726448,61.0139666 Z M67.3166791,61.0139666 L62.0846864,61.0139666 L62.0846864,65.3021319 L67.3166791,65.3021319 L67.3166791,61.0139666 Z M17.3262244,61.0139666 L11.8812244,61.0139666 L11.8812244,65.3021319 L17.3262244,65.3021319 L17.3262244,61.0139666 Z M73.5654859,61.0139666 L68.3334933,61.0139666 L68.3334933,65.3021319 L73.5654859,65.3021319 L73.5654859,61.0139666 Z M42.3214517,61.0139666 L37.089459,61.0139666 L37.089459,65.3021319 L42.3214517,65.3021319 L42.3214517,61.0139666 Z M90.8920188,5.58110704 L74.5823001,5.58110704 L74.5823001,11.7186608 L82.636955,11.7188626 L82.636955,12.7329471 L74.5823001,12.7329087 L74.5823001,18.6976029 L82.636955,18.6976744 L82.636955,19.7117589 L74.5823001,19.7115533 L74.5823001,25.3950905 L82.636955,25.3953488 L82.636955,26.4094334 L74.5823001,26.4093384 L74.5823001,32.0928757 L82.636955,32.0930232 L82.636955,33.1071078 L74.5823001,33.1068261 L74.5823001,37.6743633 L82.636955,37.6744186 L82.636955,38.6885032 L74.5823001,38.6883137 L74.5823001,43.2555534 L82.636955,43.255814 L82.636955,44.2698986 L74.5823001,44.2698013 L74.5823001,48.837041 L82.636955,48.8372094 L82.636955,49.851294 L74.5823001,49.8512889 L74.5823001,54.4185286 L82.636955,54.4186047 L82.636955,55.432689 L74.5823001,55.432479 L74.5823001,59.9997186 L82.636955,60.0000001 L82.636955,61.0140844 L74.5823001,61.0139666 L74.5823001,65.3023256 L90.8920188,65.3023256 L90.8920188,5.58110704 Z M73.5654859,59.9997186 L73.5654859,55.432479 L68.3334933,55.432479 L68.3334933,59.9997186 L73.5654859,59.9997186 Z M48.5702585,55.432479 L43.3382659,55.432479 L43.3382659,59.9997186 L48.5702585,59.9997186 L48.5702585,55.432479 Z M42.3214517,55.432479 L37.089459,55.432479 L37.089459,59.9997186 L42.3214517,59.9997186 L42.3214517,55.432479 Z M36.0726448,55.432479 L30.8406522,55.432479 L30.8406522,59.9997186 L36.0726448,59.9997186 L36.0726448,55.432479 Z M29.823838,55.432479 L24.5918454,55.432479 L24.5918454,59.9997186 L29.823838,59.9997186 L29.823838,55.432479 Z M23.5750312,55.432479 L18.3430386,55.432479 L18.3430386,59.9997186 L23.5750312,59.9997186 L23.5750312,55.432479 Z M17.3262244,55.432479 L11.8812244,55.432479 L11.8812244,59.9997186 L17.3262244,59.9997186 L17.3262244,55.432479 Z M10.8644102,55.432479 L5.11267604,55.432689 L5.11267604,60.0000001 L10.8644102,59.9997186 L10.8644102,55.432479 Z M54.8190654,55.432479 L49.5870727,55.432479 L49.5870727,59.9997186 L54.8190654,59.9997186 L54.8190654,55.432479 Z M61.0678722,55.432479 L55.8358796,55.432479 L55.8358796,59.9997186 L61.0678722,59.9997186 L61.0678722,55.432479 Z M67.3166791,55.432479 L62.0846864,55.432479 L62.0846864,59.9997186 L67.3166791,59.9997186 L67.3166791,55.432479 Z M73.5654859,54.4185286 L73.5654859,49.8512889 L68.3334933,49.8512889 L68.3334933,54.4185286 L73.5654859,54.4185286 Z M48.5702585,49.8512889 L43.3382659,49.8512889 L43.3382659,54.4185286 L48.5702585,54.4185286 L48.5702585,49.8512889 Z M42.3214517,49.8512889 L37.089459,49.8512889 L37.089459,54.4185286 L42.3214517,54.4185286 L42.3214517,49.8512889 Z M36.0726448,49.8512889 L30.8406522,49.8512889 L30.8406522,54.4185286 L36.0726448,54.4185286 L36.0726448,49.8512889 Z M29.823838,49.8512889 L24.5918454,49.8512889 L24.5918454,54.4185286 L29.823838,54.4185286 L29.823838,49.8512889 Z M23.5750312,49.8512889 L18.3430386,49.8512889 L18.3430386,54.4185286 L23.5750312,54.4185286 L23.5750312,49.8512889 Z M17.3262244,49.8512889 L11.8812244,49.8512889 L11.8812244,54.4185286 L17.3262244,54.4185286 L17.3262244,49.8512889 Z M10.8644102,49.8512889 L5.11267604,49.8512889 L5.11267604,54.4186047 L10.8644102,54.4185286 L10.8644102,49.8512889 Z M54.8190654,49.8512889 L49.5870727,49.8512889 L49.5870727,54.4185286 L54.8190654,54.4185286 L54.8190654,49.8512889 Z M61.0678722,49.8512889 L55.8358796,49.8512889 L55.8358796,54.4185286 L61.0678722,54.4185286 L61.0678722,49.8512889 Z M67.3166791,49.8512889 L62.0846864,49.8512889 L62.0846864,54.4185286 L67.3166791,54.4185286 L67.3166791,49.8512889 Z M73.5654859,48.837041 L73.5654859,44.2698013 L68.3334933,44.2698013 L68.3334933,48.837041 L73.5654859,48.837041 Z M67.3166791,44.2698013 L62.0846864,44.2698013 L62.0846864,48.837041 L67.3166791,48.837041 L67.3166791,44.2698013 Z M61.0678722,44.2698013 L55.8358796,44.2698013 L55.8358796,48.837041 L61.0678722,48.837041 L61.0678722,44.2698013 Z M54.8190654,44.2698013 L49.5870727,44.2698013 L49.5870727,48.837041 L54.8190654,48.837041 L54.8190654,44.2698013 Z M48.5702585,44.2698013 L43.3382659,44.2698013 L43.3382659,48.837041 L48.5702585,48.837041 L48.5702585,44.2698013 Z M42.3214517,44.2698013 L37.089459,44.2698013 L37.089459,48.837041 L42.3214517,48.837041 L42.3214517,44.2698013 Z M36.0726448,44.2698013 L30.8406522,44.2698013 L30.8406522,48.837041 L36.0726448,48.837041 L36.0726448,44.2698013 Z M29.823838,44.2698013 L24.5918454,44.2698013 L24.5918454,48.837041 L29.823838,48.837041 L29.823838,44.2698013 Z M23.5750312,44.2698013 L18.3430386,44.2698013 L18.3430386,48.837041 L23.5750312,48.837041 L23.5750312,44.2698013 Z M17.3262244,44.2698013 L11.8812244,44.2698013 L11.8812244,48.837041 L17.3262244,48.837041 L17.3262244,44.2698013 Z M10.8644102,44.2698013 L5.11267604,44.2698986 L5.11267604,48.8372094 L10.8644102,48.837041 L10.8644102,44.2698013 Z M73.5654859,43.2555534 L73.5654859,38.6883137 L68.3334933,38.6883137 L68.3334933,43.2555534 L73.5654859,43.2555534 Z M17.3262244,38.6883137 L11.8812244,38.6883137 L11.8812244,43.2555534 L17.3262244,43.2555534 L17.3262244,38.6883137 Z M23.5750312,38.6883137 L18.3430386,38.6883137 L18.3430386,43.2555534 L23.5750312,43.2555534 L23.5750312,38.6883137 Z M29.823838,38.6883137 L24.5918454,38.6883137 L24.5918454,43.2555534 L29.823838,43.2555534 L29.823838,38.6883137 Z M36.0726448,38.6883137 L30.8406522,38.6883137 L30.8406522,43.2555534 L36.0726448,43.2555534 L36.0726448,38.6883137 Z M42.3214517,38.6883137 L37.089459,38.6883137 L37.089459,43.2555534 L42.3214517,43.2555534 L42.3214517,38.6883137 Z M48.5702585,38.6883137 L43.3382659,38.6883137 L43.3382659,43.2555534 L48.5702585,43.2555534 L48.5702585,38.6883137 Z M54.8190654,38.6883137 L49.5870727,38.6883137 L49.5870727,43.2555534 L54.8190654,43.2555534 L54.8190654,38.6883137 Z M61.0678722,38.6883137 L55.8358796,38.6883137 L55.8358796,43.2555534 L61.0678722,43.2555534 L61.0678722,38.6883137 Z M67.3166791,38.6883137 L62.0846864,38.6883137 L62.0846864,43.2555534 L67.3166791,43.2555534 L67.3166791,38.6883137 Z M10.8644102,38.6883137 L5.11267604,38.6885032 L5.11267604,43.255814 L10.8644102,43.2555534 L10.8644102,38.6883137 Z M73.5654859,37.6743633 L73.5654859,33.1068261 L68.3334933,33.1068261 L68.3334933,37.6743633 L73.5654859,37.6743633 Z M17.3262244,33.1068261 L11.8812244,33.1068261 L11.8812244,37.6743633 L17.3262244,37.6743633 L17.3262244,33.1068261 Z M10.8644102,33.1068261 L5.11267604,33.1071078 L5.11267604,37.6744186 L10.8644102,37.6743633 L10.8644102,33.1068261 Z M23.5750312,33.1068261 L18.3430386,33.1068261 L18.3430386,37.6743633 L23.5750312,37.6743633 L23.5750312,33.1068261 Z M29.823838,33.1068261 L24.5918454,33.1068261 L24.5918454,37.6743633 L29.823838,37.6743633 L29.823838,33.1068261 Z M36.0726448,33.1068261 L30.8406522,33.1068261 L30.8406522,37.6743633 L36.0726448,37.6743633 L36.0726448,33.1068261 Z M42.3214517,33.1068261 L37.089459,33.1068261 L37.089459,37.6743633 L42.3214517,37.6743633 L42.3214517,33.1068261 Z M48.5702585,33.1068261 L43.3382659,33.1068261 L43.3382659,37.6743633 L48.5702585,37.6743633 L48.5702585,33.1068261 Z M54.8190654,33.1068261 L49.5870727,33.1068261 L49.5870727,37.6743633 L54.8190654,37.6743633 L54.8190654,33.1068261 Z M61.0678722,33.1068261 L55.8358796,33.1068261 L55.8358796,37.6743633 L61.0678722,37.6743633 L61.0678722,33.1068261 Z M67.3166791,33.1068261 L62.0846864,33.1068261 L62.0846864,37.6743633 L67.3166791,37.6743633 L67.3166791,33.1068261 Z M73.5654859,32.0928757 L73.5654859,26.4093384 L68.3334933,26.4093384 L68.3334933,32.0928757 L73.5654859,32.0928757 Z M67.3166791,26.4093384 L62.0846864,26.4093384 L62.0846864,32.0928757 L67.3166791,32.0928757 L67.3166791,26.4093384 Z M61.0678722,26.4093384 L55.8358796,26.4093384 L55.8358796,32.0928757 L61.0678722,32.0928757 L61.0678722,26.4093384 Z M54.8190654,26.4093384 L49.5870727,26.4093384 L49.5870727,32.0928757 L54.8190654,32.0928757 L54.8190654,26.4093384 Z M48.5702585,26.4093384 L43.3382659,26.4093384 L43.3382659,32.0928757 L48.5702585,32.0928757 L48.5702585,26.4093384 Z M42.3214517,26.4093384 L37.089459,26.4093384 L37.089459,32.0928757 L42.3214517,32.0928757 L42.3214517,26.4093384 Z M36.0726448,26.4093384 L30.8406522,26.4093384 L30.8406522,32.0928757 L36.0726448,32.0928757 L36.0726448,26.4093384 Z M29.823838,26.4093384 L24.5918454,26.4093384 L24.5918454,32.0928757 L29.823838,32.0928757 L29.823838,26.4093384 Z M23.5750312,26.4093384 L18.3430386,26.4093384 L18.3430386,32.0928757 L23.5750312,32.0928757 L23.5750312,26.4093384 Z M17.3262244,26.4093384 L11.8812244,26.4093384 L11.8812244,32.0928757 L17.3262244,32.0928757 L17.3262244,26.4093384 Z M10.8644102,26.4093384 L5.11267604,26.4094334 L5.11267604,32.0930232 L10.8644102,32.0928757 L10.8644102,26.4093384 Z M73.5654859,25.3950905 L73.5654859,19.7115533 L68.3334933,19.7115533 L68.3334933,25.3950905 L73.5654859,25.3950905 Z M67.3166791,19.7115533 L62.0846864,19.7115533 L62.0846864,25.3950905 L67.3166791,25.3950905 L67.3166791,19.7115533 Z M29.823838,19.7115533 L24.5918454,19.7115533 L24.5918454,25.3950905 L29.823838,25.3950905 L29.823838,19.7115533 Z M23.5750312,19.7115533 L18.3430386,19.7115533 L18.3430386,25.3950905 L23.5750312,25.3950905 L23.5750312,19.7115533 Z M17.3262244,19.7115533 L11.8812244,19.7115533 L11.8812244,25.3950905 L17.3262244,25.3950905 L17.3262244,19.7115533 Z M10.8644102,19.7115533 L5.11267604,19.7117589 L5.11267604,25.3953488 L10.8644102,25.3950905 L10.8644102,19.7115533 Z M36.0726448,19.7115533 L30.8406522,19.7115533 L30.8406522,25.3950905 L36.0726448,25.3950905 L36.0726448,19.7115533 Z M42.3214517,19.7115533 L37.089459,19.7115533 L37.089459,25.3950905 L42.3214517,25.3950905 L42.3214517,19.7115533 Z M48.5702585,19.7115533 L43.3382659,19.7115533 L43.3382659,25.3950905 L48.5702585,25.3950905 L48.5702585,19.7115533 Z M54.8190654,19.7115533 L49.5870727,19.7115533 L49.5870727,25.3950905 L54.8190654,25.3950905 L54.8190654,19.7115533 Z M61.0678722,19.7115533 L55.8358796,19.7115533 L55.8358796,25.3950905 L61.0678722,25.3950905 L61.0678722,19.7115533 Z M73.5654859,18.6976029 L73.5654859,12.7329087 L68.3334933,12.7329087 L68.3334933,18.6976029 L73.5654859,18.6976029 Z M67.3166791,12.7329087 L62.0846864,12.7329087 L62.0846864,18.6976029 L67.3166791,18.6976029 L67.3166791,12.7329087 Z M61.0678722,12.7329087 L55.8358796,12.7329087 L55.8358796,18.6976029 L61.0678722,18.6976029 L61.0678722,12.7329087 Z M54.8190654,12.7329087 L49.5870727,12.7329087 L49.5870727,18.6976029 L54.8190654,18.6976029 L54.8190654,12.7329087 Z M48.5702585,12.7329087 L43.3382659,12.7329087 L43.3382659,18.6976029 L48.5702585,18.6976029 L48.5702585,12.7329087 Z M42.3214517,12.7329087 L37.089459,12.7329087 L37.089459,18.6976029 L42.3214517,18.6976029 L42.3214517,12.7329087 Z M36.0726448,12.7329087 L30.8406522,12.7329087 L30.8406522,18.6976029 L36.0726448,18.6976029 L36.0726448,12.7329087 Z M29.823838,12.7329087 L24.5918454,12.7329087 L24.5918454,18.6976029 L29.823838,18.6976029 L29.823838,12.7329087 Z M23.5750312,12.7329087 L18.3430386,12.7329087 L18.3430386,18.6976029 L23.5750312,18.6976029 L23.5750312,12.7329087 Z M17.3262244,12.7329087 L11.8812244,12.7329087 L11.8812244,18.6976029 L17.3262244,18.6976029 L17.3262244,12.7329087 Z M10.8644102,12.7329087 L5.11267604,12.7329087 L5.11267604,18.6976744 L10.8644102,18.6976029 L10.8644102,12.7329087 Z M73.5654859,11.7186608 L73.5654859,5.58110704 L68.3334933,5.58110704 L68.3334933,11.7186608 L73.5654859,11.7186608 Z M67.3166791,5.58110704 L62.0846864,5.58110704 L62.0846864,11.7186608 L67.3166791,11.7186608 L67.3166791,5.58110704 Z M61.0678722,5.58110704 L55.8358796,5.58110704 L55.8358796,11.7186608 L61.0678722,11.7186608 L61.0678722,5.58110704 Z M54.8190654,5.58110704 L49.5870727,5.58110704 L49.5870727,11.7186608 L54.8190654,11.7186608 L54.8190654,5.58110704 Z M48.5702585,5.58110704 L43.3382659,5.58110704 L43.3382659,11.7186608 L48.5702585,11.7186608 L48.5702585,5.58110704 Z M42.3214517,5.58110704 L37.089459,5.58110704 L37.089459,11.7186608 L42.3214517,11.7186608 L42.3214517,5.58110704 Z M36.0726448,5.58110704 L30.8406522,5.58110704 L30.8406522,11.7186608 L36.0726448,11.7186608 L36.0726448,5.58110704 Z M29.823838,5.58110704 L24.5918454,5.58110704 L24.5918454,11.7186608 L29.823838,11.7186608 L29.823838,5.58110704 Z M23.5750312,5.58110704 L18.3430386,5.58110704 L18.3430386,11.7186608 L23.5750312,11.7186608 L23.5750312,5.58110704 Z M17.3262244,5.58110704 L11.8812244,5.58110704 L11.8812244,11.7186608 L17.3262244,11.7186608 L17.3262244,5.58110704 Z M10.8644102,5.58110704 L5.11267604,5.58139534 L5.11267604,11.7188626 L10.8644102,11.7186608 L10.8644102,5.58110704 Z" id="形状结合" fill="#35C8D3"></path>
                <g id="编组-20" transform="translate(9.089202, 20.093023)" fill="#FFFFFF">
                    <path d="M34.9441423,25.9805271 L60.0180833,1.08319646 L88.3347323,28.6469294 C88.7302082,29.03189 88.7343645,29.6601334 88.3440156,30.0501503 C87.9742112,30.4196397 87.3830025,30.4427654 86.9855332,30.1168556 L86.9211532,30.0593053 L60.0321673,3.88514728 L35.1053345,28.6372245 L19.7439284,16.6449612 L5.0690212,28.0873231 C4.63312523,28.4271937 4.00038562,28.3542276 3.6557577,27.9243489 C3.31112977,27.4944701 3.38511715,26.8704649 3.82101314,26.5305943 L19.7449132,14.1146373 L34.9441423,25.9805271 Z" id="路径-354"></path>
                    <ellipse id="椭圆形" cx="2.76687661" cy="28.5271318" rx="2.76687661" ry="2.72868217"></ellipse>
                    <ellipse id="椭圆形备份-19" cx="18.8650678" cy="15.1317829" rx="2.76687661" ry="2.72868217"></ellipse>
                    <ellipse id="椭圆形备份-20" cx="34.4601906" cy="27.0387597" rx="2.76687661" ry="2.72868217"></ellipse>
                    <ellipse id="椭圆形备份-21" cx="60.1166829" cy="2.72868217" rx="2.76687661" ry="2.72868217"></ellipse>
                </g>
            </g>
            <g id="柱状图" transform="translate(269.000000, 79.000000)" fill-rule="nonzero">
                <rect id="蒙版" fill="#B3CFFF" x="0" y="0" width="105" height="78"></rect>
                <polygon id="路径-24" fill="#93BBFE" points="68.4530387 63.4501625 46.6143497 53.4910327 43.5082874 63.4501625 26.5564086 51.5573769 19.7237569 63.4501625 6.5363556 52.1599576 12.4775785 45.6626335 21.9510584 53.4910327 27.3332282 43.0083869 44.6876244 53.2292747 50.2297607 43.0083869 87.8465754 60.0276273"></polygon>
                <g id="编组-19" transform="translate(68.453039, 12.525547)">
                    <polygon id="路径-349" fill="#88D2F7" points="-7.41830841e-15 2.47661473 -7.41830841e-15 50.9338317 11.1729607 55.6068508 11.1729607 5.5492195 8.0146358 2.11323693"></polygon>
                    <polygon id="路径-350" fill="#D3F6FF" points="20.1137628 2.47661473 20.1137628 50.3203448 11.1729607 55.6068508 11.1729607 4.25514797 12.0816496 0.899821106"></polygon>
                    <polygon id="路径-348" fill="#AFF0FF" points="1.35649068e-13 2.47661473 9.32673904 -5.19617931e-15 20.1137628 2.47661473 11.1729607 5.5492195"></polygon>
                </g>
                <g id="编组-19备份-3" transform="translate(43.508287, 22.204380)">
                    <polygon id="路径-349" fill="#88D2F7" points="-7.41830841e-15 2.47992904 -7.41830841e-15 41.3792747 11.7062157 45.9280187 11.1729607 5.5566457 8.0146358 2.11606495"></polygon>
                    <polygon id="路径-350" fill="#D3F6FF" points="20.1137628 2.47992904 20.1137628 40.7219021 11.1729607 46.0154826 11.1729607 4.26084237 12.0816496 0.901025285"></polygon>
                    <polygon id="路径-348" fill="#AFF0FF" points="1.35649068e-13 2.47992904 9.32673904 -5.20277509e-15 20.1137628 2.47992904 11.1729607 5.5566457"></polygon>
                </g>
                <g id="编组-19备份-4" transform="translate(19.723757, 34.160584)">
                    <polygon id="路径-349" fill="#88D2F7" points="-7.41830841e-15 2.45976701 -7.41830841e-15 29.4282592 11.5048317 33.8998863 11.1729607 5.5114697 8.0146358 2.09886117"></polygon>
                    <polygon id="路径-350" fill="#D3F6FF" points="20.1137628 2.45976701 20.1137628 28.6493431 11.1729607 33.8998863 11.1729607 4.22620139 12.0816496 0.893699877"></polygon>
                    <polygon id="路径-348" fill="#AFF0FF" points="1.35649068e-13 2.45976701 9.32673904 -5.16265075e-15 20.1137628 2.45976701 11.1729607 5.5114697"></polygon>
                </g>
            </g>
            <g id="book-pro" transform="translate(59.000000, 30.000000)">
                <g id="矩形" transform="translate(0.000000, 104.606717)">
                    <g id="蒙版" fill="#FBFCFF" fill-rule="nonzero">
                        <path d="M41.6702033,10.0742682 C76.2575508,3.35808941 104.582467,1.90851483e-14 126.644951,1.90851483e-14 C148.707436,1.90851483e-14 181.992618,3.35808941 226.500496,10.0742682 L263.895268,48.408137 C266.109221,50.3264519 267.425626,53.013381 267.844483,56.4689248 L0.179750244,56.4689248 C1.37134235,52.2442867 2.78113787,49.5573576 4.4091368,48.408137 C6.03713574,47.2589166 18.4574912,34.4809603 41.6702033,10.0742682 Z" id="path-1"></path>
                    </g>
                    <g id="Clipped">
                        <mask id="mask-2" fill="white">
                            <use xlink:href="#path-1"></use>
                        </mask>
                        <g id="path-1"></g>
                        <rect id="矩形" fill="#D3D4EC" fill-rule="nonzero" mask="url(#mask-2)" x="-3.24820845" y="53.4258891" width="278.417867" height="8.2683546"></rect>
                    </g>
                    <g id="路径-257-Clipped">
                        <mask id="mask-4" fill="white">
                            <use xlink:href="#path-3"></use>
                        </mask>
                        <g id="path-1"></g>
                        <path d="M117.262494,51.6309374 C126.246434,51.713188 143.421325,51.6724928 152.07175,51.6309374 C154.754455,51.6618344 156.631695,54.156448 152.07175,54.3923205 C143.279032,54.3705821 126.255175,54.4486781 117.262494,54.3923205 C115.115572,54.2556669 113.14339,52.4815514 117.262494,51.6309374 Z" id="路径-257" fill="#D3D4EC" fill-rule="nonzero" mask="url(#mask-4)"></path>
                    </g>
                </g>
                <path d="M114.584394,0 L47.3703972,0 C43.3952827,0.22503833 41.4077253,1.68559105 41.4077253,4.38165817 C41.4077253,7.07772526 41.4077253,43.5181571 41.4077253,113.702953 L226.592275,113.702953 L226.592275,4.38165817 C225.201055,1.46055272 223.355439,0 221.055428,0 C218.755416,0 183.265072,0 114.584394,0 Z" id="路径-254备份" fill="#CDCDE0" fill-rule="nonzero"></path>
                <path d="M114.584394,1.13702953 L47.3703972,1.13702953 C44.2026449,1.35981748 42.6187688,2.80576467 42.6187688,5.47487113 C42.6187688,8.14397757 42.2150875,44.2200051 41.4077253,113.702953 L226.592275,113.702953 L225.225071,5.47487113 C224.745321,2.58297673 223.355439,1.13702953 221.055428,1.13702953 C218.755416,1.13702953 183.265072,1.13702953 114.584394,1.13702953 Z" id="路径-254" fill="#FBFCFF" fill-rule="nonzero"></path>
                <path d="M125.214447,111.933049 C125.575159,111.933049 125.861751,111.864092 126.069284,111.735371 C126.311406,111.579068 126.434937,111.340016 126.434937,111.018215 C126.434937,110.797552 126.365759,110.62286 126.237287,110.484945 C126.108814,110.347031 125.930929,110.255088 125.69869,110.21831 C125.876575,110.163145 126.019871,110.075799 126.128579,109.956273 C126.232345,109.822955 126.286699,109.662055 126.286699,109.478168 C126.286699,109.220728 126.192815,109.018453 126.005048,108.871344 C125.812339,108.724235 125.550452,108.650681 125.224329,108.650681 L123.648069,108.650681 L123.648069,111.933049 L125.214447,111.933049 Z M125.125504,110.084993 L124.053252,110.084993 L124.053252,108.967884 L125.130446,108.967884 C125.377508,108.967884 125.565276,109.009259 125.693749,109.101202 C125.822221,109.193145 125.886458,109.33106 125.886458,109.514946 C125.886458,109.703429 125.81728,109.845941 125.688808,109.942481 C125.560335,110.034424 125.372567,110.084993 125.125504,110.084993 Z M125.179858,111.615845 L124.053252,111.615845 L124.053252,110.397599 L125.179858,110.397599 C125.451627,110.397599 125.65916,110.443571 125.802456,110.544708 C125.950694,110.645846 126.029754,110.802149 126.029754,111.013618 C126.029754,111.225087 125.940811,111.385988 125.767868,111.487125 C125.61963,111.569874 125.426921,111.615845 125.179858,111.615845 Z M128.085317,111.997409 C128.465793,111.997409 128.772151,111.873286 129.00439,111.62504 C129.216864,111.395182 129.325572,111.100964 129.325572,110.746983 C129.325572,110.388405 129.216864,110.094187 128.999449,109.859732 C128.772151,109.611486 128.465793,109.49196 128.085317,109.49196 C127.699899,109.49196 127.398482,109.611486 127.171184,109.859732 C126.953769,110.094187 126.845061,110.388405 126.845061,110.746983 C126.845061,111.100964 126.953769,111.395182 127.171184,111.62504 C127.398482,111.873286 127.699899,111.997409 128.085317,111.997409 Z M128.085317,111.6894 C127.813548,111.6894 127.601074,111.59286 127.452836,111.399779 C127.314481,111.225087 127.250244,111.009021 127.250244,110.746983 C127.250244,110.480348 127.314481,110.264282 127.452836,110.08959 C127.601074,109.89651 127.813548,109.79997 128.085317,109.79997 C128.352144,109.79997 128.564618,109.89651 128.722738,110.08959 C128.856152,110.264282 128.92533,110.480348 128.92533,110.746983 C128.92533,111.004424 128.856152,111.225087 128.722738,111.399779 C128.564618,111.59286 128.352144,111.6894 128.085317,111.6894 Z M130.980892,111.997409 C131.361369,111.997409 131.667727,111.873286 131.899966,111.62504 C132.11244,111.395182 132.221148,111.100964 132.221148,110.746983 C132.221148,110.388405 132.11244,110.094187 131.895025,109.859732 C131.667727,109.611486 131.361369,109.49196 130.980892,109.49196 C130.595475,109.49196 130.294058,109.611486 130.06676,109.859732 C129.849345,110.094187 129.740637,110.388405 129.740637,110.746983 C129.740637,111.100964 129.849345,111.395182 130.06676,111.62504 C130.294058,111.873286 130.595475,111.997409 130.980892,111.997409 Z M130.980892,111.6894 C130.709123,111.6894 130.49665,111.59286 130.348412,111.399779 C130.210057,111.225087 130.14582,111.009021 130.14582,110.746983 C130.14582,110.480348 130.210057,110.264282 130.348412,110.08959 C130.49665,109.89651 130.709123,109.79997 130.980892,109.79997 C131.24772,109.79997 131.460194,109.89651 131.618315,110.08959 C131.751729,110.264282 131.820906,110.480348 131.820906,110.746983 C131.820906,111.004424 131.751729,111.225087 131.618315,111.399779 C131.460194,111.59286 131.24772,111.6894 130.980892,111.6894 Z M133.130339,111.933049 L133.130339,111.09177 L133.535522,110.75158 L134.533656,111.933049 L135.042605,111.933049 L133.807291,110.512528 L134.933898,109.55632 L134.410124,109.55632 L133.130339,110.659637 L133.130339,108.586321 L132.735039,108.586321 L132.735039,111.933049 L133.130339,111.933049 Z M137.448997,111.933049 L137.448997,110.59068 L138.481719,110.59068 C139.292085,110.59068 139.702209,110.264282 139.702209,109.616083 C139.702209,108.972482 139.297027,108.650681 138.48666,108.650681 L137.043814,108.650681 L137.043814,111.933049 L137.448997,111.933049 Z M138.461954,110.264282 L137.448997,110.264282 L137.448997,108.977079 L138.461954,108.977079 C138.743606,108.977079 138.951139,109.027648 139.089494,109.137979 C139.227849,109.234519 139.297027,109.39542 139.297027,109.616083 C139.297027,109.836746 139.227849,109.997647 139.094435,110.103382 C138.95608,110.209116 138.748547,110.264282 138.461954,110.264282 Z M140.557047,111.933049 L140.557047,110.673429 C140.557047,110.452765 140.621283,110.264282 140.759638,110.107979 C140.893052,109.942481 141.061055,109.86433 141.258705,109.86433 C141.382237,109.86433 141.510709,109.878121 141.639182,109.914898 L141.639182,109.547126 C141.545298,109.510349 141.426708,109.49196 141.288353,109.49196 C141.110467,109.49196 140.957288,109.542529 140.823875,109.643666 C140.715167,109.721818 140.626224,109.83215 140.557047,109.970064 L140.557047,109.55632 L140.166687,109.55632 L140.166687,111.933049 L140.557047,111.933049 Z M143.111676,111.997409 C143.492153,111.997409 143.798511,111.873286 144.03075,111.62504 C144.243224,111.395182 144.351931,111.100964 144.351931,110.746983 C144.351931,110.388405 144.243224,110.094187 144.025809,109.859732 C143.798511,109.611486 143.492153,109.49196 143.111676,109.49196 C142.726258,109.49196 142.424841,109.611486 142.197544,109.859732 C141.980129,110.094187 141.871421,110.388405 141.871421,110.746983 C141.871421,111.100964 141.980129,111.395182 142.197544,111.62504 C142.424841,111.873286 142.726258,111.997409 143.111676,111.997409 Z M143.111676,111.6894 C142.839907,111.6894 142.627433,111.59286 142.479195,111.399779 C142.34084,111.225087 142.276604,111.009021 142.276604,110.746983 C142.276604,110.480348 142.34084,110.264282 142.479195,110.08959 C142.627433,109.89651 142.839907,109.79997 143.111676,109.79997 C143.378504,109.79997 143.590978,109.89651 143.749098,110.08959 C143.882512,110.264282 143.95169,110.480348 143.95169,110.746983 C143.95169,111.004424 143.882512,111.225087 143.749098,111.399779 C143.590978,111.59286 143.378504,111.6894 143.111676,111.6894 Z" id="BookPro" fill="#CDCDE0" fill-rule="nonzero"></path>
                <g id="形状结合" transform="translate(48.884120, 9.096236)" fill-rule="nonzero">
                    <g id="path-3-link" fill="#3A6CFF">
                        <path d="M81.4655397,8.48228811e-15 L3.67079841,8.48228811e-15 C1.22475734,0.692483763 0.00173680395,2.65109374 0.00173680395,5.87582993 C0.00173680395,9.10056612 0.00173680395,38.7198962 0.00173680395,94.7338199 C-0.0526520387,97.8088685 1.1703685,99.3463931 3.67079841,99.3463931 C6.17122835,99.3463931 60.0386363,99.0089986 165.273022,98.3342093 C168.39601,97.4590399 169.957504,95.5449059 169.957504,92.5918068 C169.957504,89.6387081 169.501396,60.2620821 168.589181,4.46192921 C168.882978,1.48730974 168.089727,8.48228811e-15 166.209427,8.48228811e-15 C164.329127,8.48228811e-15 136.081164,8.48228811e-15 81.4655397,8.48228811e-15 Z" id="path-3"></path>
                    </g>
                    <path d="M155.966985,22.7690084 L155.990678,22.859645 L158.306217,32.93099 C158.498076,33.7654749 157.968698,34.595578 157.123817,34.7850765 C156.30911,34.9678075 155.498529,34.4881495 155.269641,33.7054237 L155.246632,33.6172255 L154.036611,28.3546059 C145.768596,45.978834 138.037035,60.4018807 130.835645,71.6295072 C125.03371,80.675255 119.945964,80.3908379 115.784658,72.0251311 L115.403959,71.2395695 L115.333804,71.0917971 C114.311893,68.9319693 113.587871,67.0719082 111.607688,61.5173784 L109.25725,54.8971072 C106.77082,47.949602 104.923735,43.2334123 102.622828,38.1885684 C100.256247,32.9997339 98.0076396,29.9673714 95.955493,28.8494957 C94.3823706,27.9925612 92.8478746,28.2712826 90.922635,29.8030076 C88.9192453,31.3969091 86.7307663,34.1991793 84.0678376,38.4592591 L83.6277744,39.1693105 C82.6786021,40.7131388 81.6782525,42.4176539 80.4075234,44.6413349 L76.01375,52.3677747 L75.5125802,53.2349291 C74.3610363,55.2200991 73.3295811,56.9455974 72.315735,58.5722651 C66.0285125,68.6598138 59.2881639,72.0041182 52.1875006,69.1015929 C46.8940796,66.9378108 42.0313536,61.7626283 35.7530638,52.7102753 L35.5169609,52.368993 C32.7633812,48.3788471 30.3459059,47.7226819 27.4124094,49.8904357 C23.9048478,52.4824038 19.9281569,58.9062278 15.6555569,69.086891 C15.2685049,70.0091506 14.1977844,70.4468826 13.2640357,70.0645932 C12.330287,69.6823037 11.8871018,68.6247576 12.2741538,67.7024983 L12.5995614,66.9328193 C16.9867495,56.6329699 21.1397646,50.0104755 25.2196046,46.9956132 C29.923121,43.5198755 34.5973367,44.7374771 38.4173188,50.1546335 L38.9943689,50.9855684 C44.7705849,59.2701388 49.2260292,63.9782946 53.5872533,65.7610241 C58.7719751,67.8803733 63.7577476,65.4066228 69.1986258,56.6769936 L69.6253801,55.9880491 C70.554074,54.4796622 71.5132686,52.862921 72.5831978,51.0116199 L77.2206755,42.8628726 C78.5684761,40.5042901 79.6199136,38.7156145 80.6327383,37.0758564 L80.7646482,36.8627847 C83.7139075,32.1098676 86.1667183,28.9444345 88.6264348,26.9874785 C94.8243043,22.0564391 100.585391,25.1116313 105.802299,36.3602659 L105.960221,36.7036415 C108.506303,42.2860419 110.497384,47.4459195 113.346576,55.4844369 L114.713792,59.3429323 C117.06071,65.945506 117.734696,67.6694832 118.877625,70.0371065 L118.959109,70.2053737 C120.444004,73.2625177 121.697804,74.6621009 122.615109,74.7304691 C123.668338,74.8089682 125.413055,73.3281309 127.743518,69.6947253 C134.901965,58.53405 142.620922,44.1184217 150.893972,26.4537263 L144.860719,29.0880266 C144.096589,29.4216281 143.207944,29.1043447 142.831382,28.3794749 L142.791681,28.2972688 C142.453924,27.5425411 142.77516,26.6648309 143.50906,26.2929017 L143.59229,26.2536896 L153.826672,21.7855943 C154.700356,21.4041636 155.704975,21.8764885 155.966985,22.7690084 Z" id="路径" fill="#71FFD2"></path>
                </g>
                <polygon id="路径-256" fill="#CDCDE0" fill-rule="nonzero" points="48.2350697 118.819587 220.423663 118.819587 236.944206 137.580574 31.0557938 137.580574"></polygon>
                <g id="路径-258" transform="translate(93.167382, 140.423148)">
                    <g id="蒙版" fill="#CDCDE0" fill-rule="nonzero">
                        <path d="M6.06807244,0.121135567 L74.8209978,0.121135567 C75.4674383,0.0960188176 76.084033,0.429411765 76.6707818,1.12131441 C79.5721417,5.90885073 81.7937292,9.65610617 82.0464333,10.2235743 C82.2149026,10.6018864 81.9424546,10.9798231 81.2290902,11.3573845 L0.886639694,11.3573845 L0.131132734,10.128593 C2.73961431,4.59624112 4.18764225,1.54524358 4.47521652,0.975600372 C4.76279082,0.405957169 5.29374278,0.121135567 6.06807244,0.121135567 Z" id="path-5"></path>
                    </g>
                    <g id="Clipped">
                        <mask id="mask-6" fill="white">
                            <use xlink:href="#path-5"></use>
                        </mask>
                        <g id="path-5"></g>
                        <polygon id="路径" fill="#ACACAC" fill-rule="nonzero" mask="url(#mask-6)" points="-0.334569413 10.7940509 5.4560504 0.895897791 75.4846162 0.895897791 82.5604129 11.3573845 76.5441941 -0.815218511 3.78929887 -0.815218511"></polygon>
                    </g>
                </g>
                <polygon id="路径-259" fill="#FBFCFF" fill-rule="nonzero" points="49.9239205 120.525131 219.050312 120.525131 232.918455 136.443544 35.0815451 136.443544"></polygon>
                <polygon id="路径-19" fill="#CDCDE0" fill-rule="nonzero" points="222.52862 123.07476 222.52862 124.09022 46.189317 124.09022 46.189317 123.07476"></polygon>
                <polygon id="路径-19备份" fill="#CDCDE0" fill-rule="nonzero" points="224.886956 126.064726 224.886956 127.080187 43.1130436 127.080187 43.1130436 126.064726"></polygon>
                <polygon id="路径-19备份-2" fill="#CDCDE0" fill-rule="nonzero" points="226.751304 128.824695 226.751304 129.840156 41.2486956 129.840156 41.2486956 128.824695"></polygon>
                <polygon id="路径-19备份-3" fill="#CDCDE0" fill-rule="nonzero" points="230.48 132.504654 230.48 133.520115 36.587826 133.520115 36.587826 132.504654"></polygon>
            </g>
            <circle id="椭圆形" fill="#6871FF" fill-rule="nonzero" cx="309" cy="38" r="4"></circle>
            <circle id="椭圆形" fill="#6871FF" fill-rule="nonzero" cx="301.5" cy="45.5" r="1.5"></circle>
            <g id="消息" transform="translate(276.000000, 0.000000)" fill-rule="nonzero">
                <path d="M0.0188790888,18.7417668 L0.0188790888,9.24655332 C-0.156557471,6.50752904 0.890707449,5.1380169 3.16067384,5.1380169 C5.43064024,5.1380169 17.3682186,5.1380169 38.9734089,5.1380169 C40.9611286,5.1380169 41.9549884,6.12182058 41.9549884,8.08942799 C41.9549884,10.0570354 41.9549884,16.3053877 41.9549884,26.8344851 C42.4050761,28.4015491 40.9973319,29.1850811 37.731755,29.1850811 C34.4661784,29.1850811 24.2305416,29.1850811 7.02484519,29.1850811 L0.0188790888,36.9858553 L0.0188790888,18.7417668 Z" id="路径-261" fill="#85D5A0"></path>
                <ellipse id="椭圆形" fill="#F06D6D" cx="41.4711997" cy="6.60268928" rx="6.49425627" ry="6.57533367"></ellipse>
                <path d="M42.0571428,10.0854999 L42.0571428,3.24283034 L41.472,3.24283034 C41.2525716,3.50158676 40.9965716,3.73159244 40.6857144,3.94243102 C40.3748572,4.13410241 40.064,4.2682724 39.7714284,4.35452455 L39.7714284,5.14037735 C40.384,4.94870593 40.896,4.64203166 41.3074284,4.20118741 L41.3074284,10.0854999 L42.0571428,10.0854999 Z" id="1" fill="#FFFFFF"></path>
                <ellipse id="椭圆形" fill="#FFFFFF" cx="10.498593" cy="18.1440092" rx="2.49779087" ry="2.52897448"></ellipse>
                <ellipse id="椭圆形备份-10" fill="#FFFFFF" cx="20.4897565" cy="18.1440092" rx="2.49779087" ry="2.52897448"></ellipse>
                <ellipse id="椭圆形备份-11" fill="#FFFFFF" cx="30.48092" cy="18.1440092" rx="2.49779087" ry="2.52897448"></ellipse>
            </g>
            <g id="路径-21" transform="translate(2.000000, 121.000000)">
                <g id="蒙版" fill="#F4EDFF" fill-rule="nonzero">
                    <path d="M0.0100390974,25.8220882 C10.605008,25.8220882 26.6016617,25.8220882 48,25.8220882 C47.3906871,16.3226992 43.1076684,11.5730046 35.1509443,11.5730046 C32.1190898,3.80248082 27.2570225,0.0504176235 20.5647425,0.31681501 C13.8724625,0.583212396 9.50925375,5.53481326 7.47511609,15.1716176 C2.30907834,16.4764804 -0.17928066,20.0266373 0.0100390974,25.8220882 Z" id="path-7"></path>
                </g>
                <g id="Clipped">
                    <mask id="mask-8" fill="white">
                        <use xlink:href="#path-7"></use>
                    </mask>
                    <g id="path-7"></g>
                    <path d="M2.26701567,26.6366741 C3.02964812,22.1641983 5.32557233,18.9564 9.15478833,17.0132791 C9.9870357,8.33172621 13.8038944,3.59228532 20.6053644,2.79495645 C27.4068343,1.9976276 32.2316782,5.0813356 35.079896,12.0460805 L37.3199745,4.81948608 L17.3999622,-3.37037036 L1.35165909,11.3207786 L-3.98296332,22.5019973 L-4.11428572,26.6366741 L2.26701567,26.6366741 Z" id="路径" fill="#F0E7FF" fill-rule="nonzero" mask="url(#mask-8)"></path>
                </g>
            </g>
            <g id="编组-19备份" transform="translate(58.000000, 132.000000)" fill-rule="nonzero">
                <polygon id="路径-349" fill="#FF7829" points="-7.25345711e-15 1.82198847 -7.25345711e-15 37.470848 8.32756665 40.7888252 7.76822258 4.08243309 5.57233457 1.55465978"></polygon>
                <polygon id="路径-350" fill="#FFBC17" points="13.9844926 1.82198847 13.9844926 37.01952 7.76822258 40.9086806 7.76822258 3.13041445 8.40000659 0.661977685"></polygon>
                <polygon id="路径-348" fill="#F98B0C" points="1.32634644e-13 1.82198847 6.48460038 -3.88790965e-15 13.9844926 1.82198847 7.76822258 4.08243309"></polygon>
            </g>
            <g id="编组-19备份-2" transform="translate(45.000000, 149.000000)" fill-rule="nonzero">
                <polygon id="路径-349" fill="#FF7829" points="0 1.20417038 0 26.091221 5.96994438 28.4912281 5.5 2.78222367 3.94528347 1.01754386"></polygon>
                <polygon id="路径-350" fill="#FFBC17" points="10 1.32996049 10 26.2468064 5.5 29 5.5 2.25621432 5.95735274 0.508771931"></polygon>
                <polygon id="路径-348" fill="#F98B0C" points="0 1.36238841 4.63699365 -2.71128149e-15 10 1.36238841 5.55488338 3.05263158"></polygon>
            </g>
            <circle id="椭圆形" fill="#FBFCFF" fill-rule="nonzero" cx="340" cy="171" r="6"></circle>
            <circle id="椭圆形" fill="#FBFCFF" fill-rule="nonzero" cx="333.5" cy="179.5" r="3.5"></circle>
            <g id="文件页" transform="translate(30.000000, 33.000000)">
                <polygon id="路径-366" fill="#4F9BFF" fill-rule="nonzero" points="25.2600049 4.62482663 0 9.1600731 21.8639792 54.5294729 46.8976897 50.4807417"></polygon>
                <polygon id="路径-362" fill="#FFC78E" fill-rule="nonzero" points="2.06143691 3.45258708 21.1392912 57 55.6587967 51.8432558 37.4379081 1.66019417"></polygon>
                <path d="M16.4502666,18.2518706 C17.7520459,28.8966065 19.8792935,36.1910271 22.8320093,40.1351321 C27.2610831,46.05129 33.9963443,50.8648528 46.8976897,48.6990292 L18.141286,19.0750171 L16.4502666,18.2518706 Z" id="路径-51" fill="#FFAC57" fill-rule="nonzero"></path>
                <polygon id="路径-363" fill="#A2FED2" fill-rule="nonzero" points="5.19482101 1.14748156 8.24395367 1.10679612 9.8124397 4.71858153 6.86605731 4.98058253"></polygon>
                <polygon id="路径-363备份" fill="#82D7FF" fill-rule="nonzero" points="9.23523738 1.57285188e-14 12.4531456 1.57285188e-14 14.4300584 4.42718448 11.3949728 4.42718448"></polygon>
                <g id="路径-16" transform="translate(15.460586, 6.364078)">
                    <g id="蒙版" fill="#FFFFFF" fill-rule="nonzero">
                        <path d="M0,2.96437629 C17.4862616,3.02291925 27.4254533,2.11385069 29.8175751,0.237170597 C33.4678884,20.072011 37.6152459,33.2638028 42.2596474,39.8125455 C37.9585012,41.8408211 32.870605,42.521008 26.9959585,41.8531065 C18.1839887,40.8512541 14.5270615,38.5778439 7.98825868,31.1065125 C3.62905682,26.1256251 0.966303914,16.744913 0,2.96437629 Z" id="path-9"></path>
                    </g>
                    <g id="Clipped">
                        <mask id="mask-10" fill="white">
                            <use xlink:href="#path-9"></use>
                        </mask>
                        <g id="path-9"></g>
                        <path d="M18.8533177,2.45375876 C22.1682199,2.89095618 24.7125478,4.20573747 26.4863014,6.39810263 C27.7822392,7.999886 21.2310631,19.1487829 22.5821856,21.6871034 C29.8229989,4.59424344 36.0937792,24.9368876 39.0850346,34.0339806 L39.1351339,25.2353471 L29.5862456,-3.32038834 L18.8533177,2.45375876 Z" id="路径" fill="#F6F7FF" fill-rule="nonzero" mask="url(#mask-10)"></path>
                    </g>
                    <g id="路径-22-Clipped">
                        <mask id="mask-12" fill="white">
                            <use xlink:href="#path-11"></use>
                        </mask>
                        <g id="path-9"></g>
                        <path d="M6.40387812,13.6470521 L6.88024518,13.5367505 C10.3994675,12.7352891 12.7148311,12.5145165 13.8654049,12.8868796 C15.2048802,13.3203772 15.053887,14.465242 13.5909082,16.1330292 L13.5015566,16.2337225 C11.37873,18.5992347 10.1450553,20.8353267 10.2421457,22.0486521 C10.3341629,23.1985782 11.7701591,23.271732 14.6138199,21.8930741 L16.2414532,21.1099578 C19.1827971,19.7083706 20.7339233,19.0610983 21.8755922,18.7931269 L21.9479181,18.7765338 C23.7561317,18.3713809 24.172811,19.223957 23.0590413,21.1983838 L22.9979102,21.3052291 C21.5346889,23.8278256 22.7384288,25.7641896 26.7418602,27.204442 C26.8624937,27.2478405 26.9237286,27.3771324 26.8786321,27.4932237 C26.8335356,27.609315 26.699185,27.6682442 26.5785515,27.6248457 C22.3962209,26.1202335 21.0027681,23.9502432 22.5255432,21.2013426 L22.7050254,20.8858561 C23.5933509,19.2972225 23.3674316,18.9192975 22.0536761,19.2136609 L21.9108154,19.2472772 C20.6508523,19.5575413 18.8060309,20.3663833 15.0428939,22.1876981 L14.8236521,22.2939009 C11.7291118,23.7941897 9.90663426,23.7013473 9.77714293,22.0831123 C9.6700287,20.7445211 10.8951106,18.4906837 13.0065178,16.0999461 L13.1485864,15.9403693 C14.5128372,14.4201548 14.6390875,13.610787 13.716745,13.3122871 C12.6298482,12.960532 10.2143026,13.2127206 6.51462127,14.0830343 C6.38951759,14.1124637 6.26331028,14.038723 6.2327294,13.9183298 C6.20214853,13.7979367 6.27877441,13.6764815 6.40387812,13.6470521 Z" id="路径-22" fill="#A7A7A7" fill-rule="nonzero" mask="url(#mask-12)"></path>
                    </g>
                </g>
                <path d="M34.928926,39.9427479 C28.4557047,38.68062 26.8799022,37.9012108 21.7301179,35.1765695 C28.1718325,44.853782 36.5610231,49.2833805 46.8976897,48.4653646 C40.3877578,45.9793013 38.5681047,44.1931585 34.928926,39.9427479 Z" id="路径-365" fill="#D1D3FB" fill-rule="nonzero"></path>
            </g>
            <circle id="椭圆形" fill="#6871FF" fill-rule="nonzero" cx="32.5" cy="61.5" r="2.5"></circle>
            <circle id="椭圆形" fill="#6871FF" fill-rule="nonzero" cx="24" cy="56" r="4"></circle>
            <g id="笔" transform="translate(68.000000, 23.000000)">
                <g id="蒙版" fill="#FFFFFF" fill-rule="nonzero">
                    <path d="M4.39772309,27.0931232 C19.6750518,12.542184 28.6039842,4.0434511 31.1845204,1.59692434 C35.0553246,-2.0728658 41.1595683,1.02807548 35.9862738,6.37452348 C32.5374109,9.93882217 23.5136564,18.4542235 8.91501019,31.9207276 L0.000376358277,35.9720239 L4.39772309,27.0931232 Z" id="path-11"></path>
                </g>
                <g id="路径-14-Clipped">
                    <mask id="mask-14" fill="white">
                        <use xlink:href="#path-13"></use>
                    </mask>
                    <g id="path-11"></g>
                    <path d="M7.00700188,31.9878787 L35.6623804,4.93031052 C37.8313644,2.04937732 36.5654405,0.227321999 31.8646093,-0.53585546 C33.0201168,-1.44535465 33.5902302,-2.23386946 34.7576807,-2.8763779 C36.4638062,-1.72436659 38.6943633,-0.323205805 41.4493522,1.32710444 L10.6675786,37.1247064 L7.00700188,31.9878787 Z" id="路径-14" fill="#D1D3FB" fill-rule="nonzero" mask="url(#mask-14)"></path>
                </g>
                <g id="路径-403-Clipped">
                    <mask id="mask-16" fill="white">
                        <use xlink:href="#path-15"></use>
                    </mask>
                    <g id="path-11"></g>
                    <path d="M27.3196138,2.69233206 C31.2837979,3.87971611 33.6345481,6.56293771 34.2711462,10.6309586 L34.3047483,10.8583837 L32.6497404,11.0982708 C32.1685052,7.63915106 30.335916,5.440633 27.0518132,4.39229409 L26.8489312,4.32954626 L27.3196138,2.69233206 Z" id="路径-403" fill="#B5B7D8" fill-rule="nonzero" mask="url(#mask-16)"></path>
                </g>
                <g id="路径-404-Clipped">
                    <mask id="mask-18" fill="white">
                        <use xlink:href="#path-17"></use>
                    </mask>
                    <g id="path-11"></g>
                    <path d="M2.67266891,26.4872735 C6.22819985,27.1782274 8.56647097,29.7439352 9.68748228,34.1843974 L-1.67767715,38.1309176 L2.67266891,26.4872735 Z" id="路径-404" fill="#B5B7D8" fill-rule="nonzero" mask="url(#mask-18)"></path>
                </g>
                <g id="路径-405-Clipped">
                    <mask id="mask-20" fill="white">
                        <use xlink:href="#path-19"></use>
                    </mask>
                    <g id="path-11"></g>
                    <path d="M0.554879229,31.4012728 C2.94799745,32.7738477 4.49060466,34.4632794 5.18270087,36.4695673 L-2.228815,39.1108212 L0.554879229,31.4012728 Z" id="路径-405" fill="#3D3D3D" fill-rule="nonzero" mask="url(#mask-20)"></path>
                </g>
            </g>
            <g id="书本" transform="translate(281.000000, 51.000000)">
                <g id="路径-23" transform="translate(0.000000, 10.572065)">
                    <g id="蒙版" fill="#FFC78E" fill-rule="nonzero">
                        <path d="M10.7449407,1.73931063 L0,22.5544686 C11.2028497,19.3481474 19.6066374,19.3481474 25.2113633,22.5544686 C39.1759315,21.5099106 48.5199797,24.1041642 53.2435078,30.3372295 L66,5.95563805 L48.4021387,0 L10.7449407,1.73931063 Z" id="path-13"></path>
                    </g>
                    <g id="Clipped">
                        <mask id="mask-22" fill="white">
                            <use xlink:href="#path-21"></use>
                        </mask>
                        <g id="path-13"></g>
                        <path d="M2.77907867,16.1349364 C13.7241876,16.3012215 21.2242354,18.4306075 25.279222,22.5230946 C38.1441018,19.9777736 47.6005549,21.330303 53.6485814,26.5806828 L65.1789018,4.5686856 C65.2725331,4.5686856 64.0111369,4.5686856 61.3947135,4.5686856 C58.7782902,4.5686856 39.4328435,7.5899713 3.35837366,13.6325426 L2.77907867,16.1349364 Z" id="路径" fill="#FFAF5E" fill-rule="nonzero" mask="url(#mask-22)"></path>
                    </g>
                </g>
                <path d="M52.8353303,10.5720648 C57.6181484,10.8038355 61.2262299,11.9265369 63.6595746,13.9401688 L53.4257134,35.3934343 C44.5518725,30.6104411 35.6369183,29.8132418 26.6808511,33.0018364 L50.5058648,11.8090656 L52.8353303,10.5720648 Z" id="路径-393" fill="#DFE1FF" fill-rule="nonzero"></path>
                <path d="M36.565862,10.9892634 C45.9810744,6.97809539 53.452028,6.76743542 58.9787235,10.3572835 L50.2408954,30.6374976 C41.4772281,27.5155834 33.6238801,28.3348039 26.6808511,33.0951592 C30.422181,24.0486317 33.7171844,16.6799997 36.565862,10.9892634 Z" id="路径-392" fill="#F1F2FF" fill-rule="nonzero"></path>
                <path d="M22.929453,6.92353068 C18.6679938,4.13689492 14.9274712,3.44023597 11.7078852,4.83355387 L0,25.1571307 C12.0983112,24.4356794 20.7443216,27.2349073 25.9380313,33.5548145 L31.361702,14.6833346 L22.929453,6.92353068 Z" id="路径-396" fill="#D6D8FE" fill-rule="nonzero"></path>
                <path d="M37.9148937,10.5470236 C34.3954341,4.48907466 28.9578313,0.973400133 21.6020849,0 C13.4418297,13.0677683 9.36170212,19.6016524 9.36170212,19.6016524 C18.9897844,19.8329972 24.6902802,24.3308328 26.4631895,33.0951592 C30.8497884,24.3829552 34.6670229,16.8669099 37.9148937,10.5470236 Z" id="路径-395" fill="#E7E9FF" fill-rule="nonzero"></path>
            </g>
        </g>
    </g>
</svg>